<svg width="266" height="226" viewBox="0 0 266 226" fill="none" xmlns="http://www.w3.org/2000/svg">
<path d="M195.971 140.062L194.644 140.02L194.97 141.307L205.833 184.169L172.457 154.305L171.265 153.239L170.828 154.776L158.432 198.342L139.667 156.954L138.957 155.387L137.947 156.78L111.198 193.657L106.471 148.346L106.293 146.635L104.894 147.636L67.9496 174.097L78.9971 130.17L79.387 128.62L77.8225 128.947L33.9855 138.123L64.8238 106.435L65.7504 105.483L64.5792 104.856L26.5834 84.5147L69.6592 85.8968L70.987 85.9394L70.6606 84.6516L59.7978 41.79L93.1741 71.6544L94.3653 72.7203L94.8027 71.1829L107.199 27.6169L125.963 69.0052L126.674 70.5718L127.684 69.1794L154.433 32.3022L159.159 77.6133L159.338 79.3242L160.736 78.3226L197.681 51.8615L186.634 95.7889L186.244 97.339L187.808 97.0115L231.645 87.8363L200.807 119.524L199.88 120.476L201.051 121.103L239.047 141.444L195.971 140.062Z" fill="#F46F6F" stroke="black" stroke-width="2"/>
<path d="M90.1713 107.328L94.5942 91.8679L92.1022 91.1549L87.6793 106.615L90.1713 107.328ZM95.2397 108.778L97.1343 102.155C97.7482 100.009 98.8956 99.489 100.926 100.07C103.026 100.671 103.428 101.709 102.84 103.763L100.939 110.408L103.431 111.121L105.491 103.922C106.237 101.315 105.44 99.0396 102.463 98.188C100.225 97.5477 98.6719 98.3515 97.7913 99.4226L97.699 99.3962L98.3129 97.2503L96.0286 96.5968L92.7477 108.065L95.2397 108.778ZM110.506 113.395C113.413 114.227 115.454 113.462 116.062 111.34C116.603 109.448 115.733 108.125 113.643 107.053L111.811 106.129C110.288 105.344 109.945 104.972 110.196 104.095C110.447 103.218 111.024 102.859 112.847 103.38C114.9 103.968 115.052 104.835 114.748 105.896L114.669 106.173L117.046 106.853L117.105 106.646C117.851 104.038 116.203 102.119 113.504 101.347C110.504 100.488 108.4 101.384 107.806 103.461C107.212 105.538 108.24 106.83 110.188 107.787L111.879 108.595C113.478 109.377 113.952 109.813 113.688 110.736C113.444 111.589 112.979 111.906 111.133 111.377C108.941 110.75 108.519 110.13 108.876 108.884L108.995 108.469L106.595 107.783L106.582 107.829C105.783 110.621 107.16 112.438 110.506 113.395ZM118.341 119.705L119.991 113.937L120.061 113.957C120.265 115.163 121.263 116.472 123.317 117.06C126.432 117.951 128.829 116.116 129.865 112.493C130.908 108.847 129.798 106.008 126.568 105.084C124.584 104.516 123.044 104.925 122.13 106.111L122.015 106.078L122.556 104.186L120.295 103.539L115.872 118.999L118.341 119.705ZM120.83 111.006L121.417 108.953C121.965 107.038 123.33 106.454 125.361 107.035C127.576 107.669 128.185 108.942 127.373 111.78C126.568 114.595 125.354 115.346 123.162 114.719C121.132 114.138 120.282 112.921 120.83 111.006ZM136.226 106.524L136.952 103.986L134.46 103.273L133.757 105.818L136.226 106.524ZM132.552 119.452L135.853 107.915L133.361 107.202L130.06 118.739L132.552 119.452ZM137.332 120.82L139.471 113.344C139.907 111.821 140.626 111.403 142.125 111.832C143.579 112.248 143.859 112.927 143.423 114.45L143.291 114.911L145.783 115.624L146.001 114.863C146.615 112.717 146.194 110.699 143.794 110.012C142.11 109.531 140.784 110.15 140.019 111.079L139.904 111.046L140.425 109.223L138.141 108.57L134.84 120.107L137.332 120.82ZM151.255 110.824L151.982 108.286L149.49 107.573L148.786 110.118L151.255 110.824ZM147.582 123.752L150.882 112.215L148.39 111.502L145.09 123.039L147.582 123.752ZM152.362 125.12L154.257 118.498C154.871 116.352 156.018 115.831 158.049 116.412C160.148 117.013 160.55 118.051 159.963 120.105L158.061 126.75L160.553 127.463L162.613 120.264C163.359 117.657 162.562 115.382 159.585 114.53C157.347 113.89 155.794 114.694 154.914 115.765L154.821 115.738L155.435 113.593L153.151 112.939L149.87 124.407L152.362 125.12ZM167.658 128.323C169.527 128.857 171.129 128.317 171.977 127.361L172.069 127.388L171.416 129.672C170.808 131.795 170.07 132.283 167.832 131.642C165.524 130.982 165.099 130.287 165.548 128.717L163.079 128.011C162.287 130.78 163.875 132.907 167.129 133.838C170.474 134.795 172.914 133.771 173.885 130.379L176.928 119.741L174.644 119.088L174.102 120.98L174.01 120.954C173.839 119.457 172.633 118.263 170.787 117.735C167.557 116.811 165.186 118.379 164.261 121.609C163.337 124.84 164.497 127.418 167.658 128.323ZM166.753 122.322C167.427 119.969 168.611 119.409 170.756 120.023C172.672 120.571 173.66 121.827 173.112 123.742L172.908 124.457C172.353 126.396 170.85 126.939 168.981 126.404C166.812 125.784 166.08 124.676 166.753 122.322Z" fill="#202020"/>
</svg>
